# This file uses centimeters as units for non-parametric coordinates.

mtllib Little_Rock.mtl
g default
v -10.206255 5.803860 3.381178
v -10.731719 5.156720 3.117207
v -11.521516 5.157507 2.880977
v -11.987734 4.817573 2.260575
v -12.418366 4.909774 1.808694
v -10.108469 6.302028 3.324668
v -10.894537 5.923868 2.943438
v -11.550209 5.703237 2.583753
v -12.127039 5.473931 2.111901
v -12.651082 5.120820 1.628798
v -10.020624 6.559449 3.366509
v -10.938926 6.133015 2.896064
v -11.594598 5.912384 2.536378
v -12.225016 5.663516 2.028372
v -12.833407 5.409793 1.478295
v -10.040820 6.654605 3.344955
v -10.983315 6.342162 2.848690
v -11.638987 6.121531 2.489004
v -12.215816 5.892226 2.017153
v -12.944849 5.594462 1.385681
v -11.246036 6.584301 3.151540
v -11.927526 6.366510 2.828584
v -12.597500 6.090936 2.239742
v -11.399022 6.601132 3.369188
v -12.080512 6.383341 3.046233
v -12.706434 6.123849 2.487112
v -11.531485 6.592542 3.455382
v -12.233498 6.400171 3.263882
v -12.784510 6.168026 2.755300
v -11.201460 6.540927 3.930587
v -11.768690 6.379251 3.748310
v -12.342096 6.207855 3.528905
v -12.816835 6.030804 3.192089
v -13.215490 5.805686 2.571774
v -11.157071 6.331779 3.977961
v -11.767928 6.242414 3.856046
v -12.326848 6.008631 3.647393
v -12.821640 5.833787 3.339106
v -13.116682 5.636966 2.746637
v -11.200764 6.155858 3.970847
v -11.734603 5.968491 3.927564
v -12.282459 5.799484 3.694768
v -12.788662 5.678402 3.374302
v -13.072293 5.427819 2.794012
v -11.304862 5.966727 3.912301
v -11.675693 5.818307 3.888220
v -12.208929 5.580413 3.671028
v -12.626307 5.397052 3.252606
v -12.869402 5.292666 2.854712
v -10.857786 6.114698 3.878632
v -11.475943 5.644381 3.772838
v -12.016944 5.379833 3.495001
v -12.567956 5.147688 2.986419
v -12.938634 5.158020 2.489975
v -10.675703 5.960769 3.692037
v -11.139316 5.377475 3.646362
v -11.843486 5.266548 3.299200
v -12.368082 5.045825 2.811831
v -12.785648 5.141189 2.272326
v -10.378547 5.939901 3.576038
v -10.969446 5.281094 3.446732
v -11.680286 5.201593 3.092452
v -12.211739 4.877290 2.604745
v -12.617357 5.027899 2.069800
v -13.157433 5.303497 2.324931
v -13.004447 5.286666 2.107282
v -12.846111 5.237061 1.817873
v -13.201822 5.512644 2.277556
v -13.048836 5.495813 2.059907
v -13.008143 5.437989 1.766497
v -13.299798 5.702228 2.194028
v -13.146812 5.685398 1.976379
v -13.119586 5.622657 1.673883
v -10.716622 6.317361 3.962185
v -10.547494 6.224474 3.761764
v -10.283206 6.330224 3.612870
v -10.761011 6.526508 3.914811
v -10.475017 6.558233 3.786898
v -10.245820 6.569223 3.620667
v -10.781206 6.621664 3.893256
v -10.495213 6.653389 3.765344
v -10.266016 6.664380 3.599113
v -10.070294 6.793479 3.313498
v -10.204056 6.838207 3.296162
v -11.012789 6.481035 2.817233
v -11.050888 6.557477 2.850267
v -11.668461 6.260404 2.457547
v -11.714661 6.334120 2.486138
v -12.245290 6.031099 1.985696
v -12.299000 6.101829 2.008144
v -12.967183 5.828918 1.429379
v -12.974323 5.733335 1.354225
v -11.213855 6.737696 3.798591
v -11.230934 6.679799 3.899131
v -11.714918 6.567452 3.516488
v -11.748847 6.516698 3.618756
v -12.339559 6.409051 3.402459
v -12.371568 6.346722 3.497450
v -12.751035 6.232227 3.007366
v -12.807385 6.178555 3.098136
v -13.187434 6.018543 2.472898
v -13.244963 5.944557 2.540317
v -10.347839 6.851516 3.489639
v -10.295490 6.803253 3.567656
v -13.088942 5.851286 1.642210
v -13.149060 5.761530 1.642427
v -10.563917 6.841154 3.646355
v -10.524687 6.792262 3.733888
v -13.116168 5.914026 1.944706
v -13.176286 5.824271 1.944923
v -10.827572 6.811907 3.764277
v -10.810680 6.760538 3.861800
v -13.259733 5.929820 2.148952
v -13.329273 5.841101 2.162571
vt 0.375000 0.000000
vt 0.437500 0.000000
vt 0.500000 0.000000
vt 0.562500 0.000000
vt 0.625000 0.000000
vt 0.375000 0.062500
vt 0.437500 0.062500
vt 0.500000 0.062500
vt 0.562500 0.062500
vt 0.625000 0.062500
vt 0.375000 0.125000
vt 0.437500 0.125000
vt 0.500000 0.125000
vt 0.562500 0.125000
vt 0.625000 0.125000
vt 0.500000 0.375000
vt 0.625000 0.562500
vt 0.375000 0.625000
vt 0.437500 0.625000
vt 0.500000 0.625000
vt 0.562500 0.625000
vt 0.625000 0.625000
vt 0.375000 0.687500
vt 0.437500 0.687500
vt 0.500000 0.687500
vt 0.562500 0.687500
vt 0.625000 0.687500
vt 0.375000 0.750000
vt 0.437500 0.750000
vt 0.500000 0.750000
vt 0.562500 0.750000
vt 0.625000 0.750000
vt 0.375000 0.812500
vt 0.437500 0.812500
vt 0.500000 0.812500
vt 0.562500 0.812500
vt 0.625000 0.812500
vt 0.375000 0.875000
vt 0.437500 0.875000
vt 0.500000 0.875000
vt 0.562500 0.875000
vt 0.625000 0.875000
vt 0.375000 0.937500
vt 0.437500 0.937500
vt 0.500000 0.937500
vt 0.562500 0.937500
vt 0.625000 0.937500
vt 0.375000 1.000000
vt 0.437500 1.000000
vt 0.500000 1.000000
vt 0.562500 1.000000
vt 0.625000 1.000000
vt 0.875000 0.000000
vt 0.812500 0.000000
vt 0.750000 0.000000
vt 0.687500 0.000000
vt 0.875000 0.062500
vt 0.812500 0.062500
vt 0.750000 0.062500
vt 0.687500 0.062500
vt 0.875000 0.125000
vt 0.812500 0.125000
vt 0.750000 0.125000
vt 0.687500 0.125000
vt 0.125000 0.000000
vt 0.187500 0.000000
vt 0.250000 0.000000
vt 0.312500 0.000000
vt 0.125000 0.062500
vt 0.187500 0.062500
vt 0.250000 0.062500
vt 0.312500 0.062500
vt 0.125000 0.125000
vt 0.187500 0.125000
vt 0.250000 0.125000
vt 0.312500 0.125000
vt 0.125000 0.187500
vt 0.375000 0.312500
vt 0.375000 0.521000
vt 0.386278 0.476299
vt 0.612622 0.471535
vt 0.625000 0.437500
vt 0.375000 0.375000
vt 0.625000 0.312500
vt 0.375000 0.437500
vt 0.625000 0.375000
vt 0.437500 0.187500
vt 0.375000 0.229000
vt 0.500000 0.187500
vt 0.437500 0.229000
vt 0.562500 0.187500
vt 0.500000 0.229000
vt 0.625000 0.187500
vt 0.562500 0.229000
vt 0.379526 0.272132
vt 0.436924 0.271237
vt 0.437500 0.312500
vt 0.500000 0.271152
vt 0.559541 0.269543
vt 0.500000 0.312500
vt 0.620414 0.271258
vt 0.620414 0.302395
vt 0.379526 0.302065
vt 0.437500 0.375000
vt 0.562500 0.312500
vt 0.617314 0.362663
vt 0.380171 0.360523
vt 0.562500 0.375000
vt 0.618867 0.422432
vt 0.382032 0.416801
vt 0.437500 0.437500
vt 0.500000 0.437500
vt 0.442595 0.473604
vt 0.562500 0.437500
vt 0.500760 0.478755
vt 0.557212 0.479945
vt 0.437500 0.518185
vt 0.375000 0.562500
vt 0.500000 0.521002
vt 0.437500 0.562500
vt 0.562500 0.516973
vt 0.500000 0.562500
vt 0.625000 0.521001
vt 0.562500 0.562500
vt 0.875000 0.187500
vt 0.875000 0.228999
vt 0.812500 0.229000
vt 0.812500 0.187500
vt 0.750000 0.229000
vt 0.750000 0.187500
vt 0.687500 0.229000
vt 0.687500 0.187500
vt 0.625000 0.229000
vt 0.187500 0.187500
vt 0.125000 0.229000
vt 0.250000 0.187500
vt 0.187500 0.229000
vt 0.312500 0.187500
vt 0.250000 0.229000
vt 0.375000 0.187500
vt 0.312500 0.229000
vn 0.516331 -0.127580 -0.846833
vn 0.437074 -0.219074 -0.872338
vn 0.469871 -0.162959 -0.867563
vn 0.493375 -0.092848 -0.864847
vn 0.569827 -0.207768 -0.795066
vn 0.584377 -0.167274 -0.794055
vn 0.740682 -0.099175 -0.664495
vn 0.706342 -0.050279 -0.706083
vn 0.695749 0.026499 -0.717796
vn 0.686377 0.026256 -0.726771
vn 0.486878 -0.077056 -0.870065
vn 0.479654 -0.077739 -0.874007
vn 0.573908 -0.063138 -0.816482
vn 0.655305 -0.014014 -0.755234
vn 0.666802 0.002092 -0.745232
vn 0.494232 -0.090939 -0.864560
vn 0.487861 -0.093058 -0.867947
vn 0.574724 -0.067001 -0.815600
vn 0.653850 -0.034897 -0.755819
vn 0.664536 -0.025276 -0.746829
vn -0.202697 0.955047 -0.216330
vn -0.202697 0.955047 -0.216330
vn -0.202697 0.955047 -0.216330
vn -0.202697 0.955047 -0.216330
vn -0.202697 0.955047 -0.216330
vn -0.202697 0.955047 -0.216330
vn -0.202697 0.955047 -0.216330
vn -0.202697 0.955047 -0.216330
vn -0.202697 0.955047 -0.216330
vn -0.224104 0.340662 0.913086
vn -0.387528 0.431981 0.814380
vn -0.357383 0.308184 0.881646
vn -0.230721 0.233906 0.944487
vn -0.527616 0.423503 0.736388
vn -0.510760 0.274301 0.814790
vn -0.774366 0.259598 0.577033
vn -0.762264 0.163066 0.626388
vn -0.914769 -0.007180 0.403913
vn -0.886893 0.067409 0.457030
vn -0.265473 -0.032935 0.963556
vn -0.123751 0.033676 0.991742
vn -0.446843 -0.165139 0.879238
vn -0.668465 -0.247969 0.701189
vn -0.732978 -0.422605 0.533056
vn -0.174046 -0.270855 0.946755
vn 0.032911 -0.281080 0.959120
vn -0.406945 -0.381914 0.829782
vn -0.545289 -0.537997 0.642820
vn -0.593641 -0.599245 0.537118
vn 0.180312 -0.469619 0.864260
vn 0.021911 -0.596757 0.802123
vn 0.067233 -0.563582 0.823320
vn 0.229272 -0.388908 0.892292
vn -0.154177 -0.700998 0.696298
vn -0.136988 -0.756086 0.639975
vn -0.326782 -0.746630 0.579446
vn -0.242071 -0.872436 0.424568
vn -0.538529 -0.715612 0.444844
vn -0.320984 -0.930341 0.177298
vn 0.144401 -0.700685 0.698705
vn 0.316391 -0.414435 0.853311
vn -0.066708 -0.846113 0.528813
vn -0.196966 -0.923010 0.330539
vn -0.405501 -0.901737 0.149798
vn 0.222087 -0.806777 0.547529
vn 0.444471 -0.540528 0.714335
vn 0.025206 -0.928957 0.369329
vn -0.094587 -0.955665 0.278850
vn -0.405514 -0.907572 0.108954
vn 0.313402 -0.764798 0.562906
vn 0.463444 -0.594145 0.657427
vn 0.094141 -0.948859 0.301336
vn -0.150130 -0.977543 0.147890
vn -0.329269 -0.943066 0.046984
vn -0.572556 -0.813780 0.099706
vn -0.639509 -0.692667 0.333528
vn -0.853930 -0.434056 0.287054
vn -0.813367 -0.580967 0.030192
vn -0.507791 -0.848797 -0.147283
vn -0.671372 -0.698188 -0.248583
vn -0.586697 -0.802122 -0.111299
vn -0.674277 -0.708326 -0.208864
vn -0.604925 -0.787247 -0.119615
vn -0.637736 -0.746349 -0.190408
vn -0.945558 -0.221804 0.238166
vn -0.944261 -0.328019 -0.027831
vn -0.833199 -0.471381 -0.289101
vn -0.791220 -0.562406 -0.240147
vn -0.698480 -0.620745 -0.356091
vn -0.932715 -0.359189 -0.032040
vn -0.867537 -0.434240 -0.242519
vn -0.860346 -0.453035 -0.233588
vn -0.764826 -0.492299 -0.415551
vn 0.184692 -0.435212 0.881180
vn 0.325973 -0.476111 0.816737
vn 0.334689 -0.162754 0.928167
vn 0.131597 -0.228431 0.964625
vn 0.450087 -0.358057 0.818057
vn 0.501260 -0.278268 0.819332
vn 0.681714 -0.203499 0.702747
vn 0.667869 -0.205448 0.715362
vn 0.776533 -0.155268 0.610646
vn 0.774917 -0.194749 0.601313
vn 0.253278 0.144072 0.956605
vn 0.040049 0.141055 0.989191
vn 0.549087 0.020493 0.835514
vn 0.686144 -0.073357 0.723758
vn 0.780656 -0.101693 0.616631
vn 0.164643 0.251009 0.953880
vn 0.456772 0.287623 0.841803
vn 0.648154 0.296447 0.701438
vn 0.720748 0.295054 0.627269
vn 0.337509 0.912501 0.231148
vn 0.337509 0.912501 0.231148
vn 0.301736 0.907497 0.292240
vn 0.283186 0.903257 0.322386
vn 0.271901 0.492736 -0.826608
vn 0.271901 0.492736 -0.826608
vn 0.276424 0.494011 -0.824344
vn 0.277205 0.494230 -0.823950
vn 0.340494 0.517790 -0.784829
vn 0.340494 0.517790 -0.784829
vn 0.404851 0.541306 -0.736942
vn 0.403753 0.540784 -0.737927
vn 0.411115 0.544264 -0.731274
vn 0.411115 0.544264 -0.731274
vn -0.740583 0.464916 -0.485170
vn -0.740583 0.464916 -0.485170
vn -0.796608 0.521046 -0.306476
vn -0.783888 0.507226 -0.358108
vn -0.295379 0.862686 0.410516
vn -0.371910 0.849761 0.373617
vn -0.067062 0.877932 0.474066
vn 0.008923 0.885362 0.464817
vn -0.399062 0.845309 0.355250
vn -0.360762 0.855216 0.372098
vn -0.420016 0.846246 0.327802
vn -0.441244 0.840554 0.314283
vn -0.594099 0.779738 0.197624
vn -0.576465 0.788545 0.214207
vn -0.703324 0.704157 0.097455
vn -0.651332 0.744604 0.146053
vn -0.786554 0.617488 0.006432
vn -0.786554 0.617488 0.006432
vn 0.185943 0.890940 0.414307
vn 0.149724 0.890252 0.430155
vn -0.770011 0.514848 -0.376847
vn -0.788528 0.527396 -0.316349
vn -0.704371 0.470510 -0.531490
vn -0.704371 0.470510 -0.531490
vn 0.493620 -0.091143 -0.864888
vn 0.487861 -0.093058 -0.867947
vn 0.573908 -0.063138 -0.816482
vn 0.652749 -0.032900 -0.756859
vn 0.661278 -0.029437 -0.749563
vn -0.202697 0.955047 -0.216330
vn -0.202697 0.955047 -0.216330
vn -0.202697 0.955047 -0.216330
vn -0.202697 0.955047 -0.216330
vn -0.202697 0.955047 -0.216330
vn -0.202697 0.955047 -0.216330
vn -0.202697 0.955047 -0.216330
vn -0.202697 0.955047 -0.216330
vn -0.202697 0.955047 -0.216330
vn -0.202697 0.955047 -0.216330
vn -0.202697 0.955047 -0.216330
vn -0.202697 0.955047 -0.216330
vn -0.202697 0.955047 -0.216330
vn -0.202697 0.955047 -0.216330
vn -0.202697 0.955047 -0.216330
vn -0.202697 0.955047 -0.216330
vn -0.279772 0.371449 0.885298
vn -0.418871 0.446222 0.790843
vn -0.519121 0.369074 0.770907
vn -0.774805 0.207204 0.597281
vn -0.891873 0.070721 0.446722
vn -0.956362 -0.145595 0.253326
vn -0.793438 -0.289652 -0.535312
vn -0.793438 -0.289652 -0.535312
vn -0.975298 -0.216698 -0.042838
vn -0.975298 -0.216698 -0.042838
vn -0.831860 -0.284490 -0.476523
vn -0.831860 -0.284490 -0.476523
vn 0.181864 0.253787 0.950009
vn 0.456773 0.287623 0.841803
vn 0.648154 0.296447 0.701438
vn 0.720748 0.295054 0.627269
s 1
g pCube21
usemtl initialShadingGroup
f 1/1/1 2/2/2 7/7/3 6/6/4
f 2/2/2 3/3/5 8/8/6 7/7/3
f 3/3/5 4/4/7 9/9/8 8/8/6
f 4/4/7 5/5/9 10/10/10 9/9/8
f 6/6/4 7/7/3 12/12/11 11/11/12
f 7/7/3 8/8/6 13/13/13 12/12/11
f 8/8/6 9/9/8 14/14/14 13/13/13
f 9/9/8 10/10/10 15/15/15 14/14/14
f 11/11/12 12/12/11 17/87/16 16/140/17
f 12/12/11 13/13/13 18/89/18 17/87/16
f 13/13/13 14/14/14 19/91/19 18/89/18
f 14/14/14 15/15/15 20/93/20 19/91/19
s 2
f 21/97/21 22/100/22 25/16/23 24/104/24
f 22/100/22 23/105/25 26/108/26 25/16/23
f 24/104/24 25/16/23 28/112/27 27/111/28
f 25/16/23 26/108/26 29/114/29 28/112/27
s 3
f 30/118/30 31/120/31 36/19/32 35/18/33
f 31/120/31 32/122/34 37/20/35 36/19/32
f 32/122/34 33/124/36 38/21/37 37/20/35
f 33/124/36 34/17/38 39/22/39 38/21/37
f 35/18/33 36/19/32 41/24/40 40/23/41
f 36/19/32 37/20/35 42/25/42 41/24/40
f 37/20/35 38/21/37 43/26/43 42/25/42
f 38/21/37 39/22/39 44/27/44 43/26/43
f 40/23/41 41/24/40 46/29/45 45/28/46
f 41/24/40 42/25/42 47/30/47 46/29/45
f 42/25/42 43/26/43 48/31/48 47/30/47
f 43/26/43 44/27/44 49/32/49 48/31/48
s 4
f 45/28/50 46/29/51 51/34/52 50/33/53
f 46/29/51 47/30/54 52/35/55 51/34/52
f 47/30/54 48/31/56 53/36/57 52/35/55
f 48/31/56 49/32/58 54/37/59 53/36/57
f 50/33/53 51/34/52 56/39/60 55/38/61
f 51/34/52 52/35/55 57/40/62 56/39/60
f 52/35/55 53/36/57 58/41/63 57/40/62
f 53/36/57 54/37/59 59/42/64 58/41/63
f 55/38/61 56/39/60 61/44/65 60/43/66
f 56/39/60 57/40/62 62/45/67 61/44/65
f 57/40/62 58/41/63 63/46/68 62/45/67
f 58/41/63 59/42/64 64/47/69 63/46/68
f 60/43/66 61/44/65 2/49/70 1/48/71
f 61/44/65 62/45/67 3/50/72 2/49/70
f 62/45/67 63/46/68 4/51/73 3/50/72
f 63/46/68 64/47/69 5/52/74 4/51/73
s 3
f 54/54/75 49/53/76 44/57/77 65/58/78
f 59/55/79 54/54/75 65/58/78 66/59/80
f 64/56/81 59/55/79 66/59/80 67/60/82
f 5/5/83 64/56/81 67/60/82 10/10/84
f 65/58/78 44/57/77 39/61/85 68/62/86
f 66/59/80 65/58/78 68/62/86 69/63/87
f 67/60/82 66/59/80 69/63/87 70/64/88
f 10/10/84 67/60/82 70/64/88 15/15/89
f 68/62/86 39/61/85 34/125/38 71/128/90
f 69/63/87 68/62/86 71/128/90 72/130/91
f 70/64/88 69/63/87 72/130/91 73/132/92
f 15/15/89 70/64/88 73/132/92 20/93/93
f 45/65/94 50/66/95 74/70/96 40/69/97
f 50/66/95 55/67/98 75/71/99 74/70/96
f 55/67/98 60/68/100 76/72/101 75/71/99
f 60/68/100 1/1/102 6/6/103 76/72/101
f 40/69/97 74/70/96 77/74/104 35/73/105
f 74/70/96 75/71/99 78/75/106 77/74/104
f 75/71/99 76/72/101 79/76/107 78/75/106
f 76/72/101 6/6/103 11/11/108 79/76/107
f 35/73/105 77/74/104 80/134/109 30/77/30
f 77/74/104 78/75/106 81/136/110 80/134/109
f 78/75/106 79/76/107 82/138/111 81/136/110
f 79/76/107 11/11/108 16/140/112 82/138/111
s 7
f 83/88/113 84/95/114 103/103/115 104/78/116
s 8
f 84/95/117 83/88/118 85/90/119 86/96/120
f 86/96/120 85/90/119 87/92/121 88/98/122
f 88/98/122 87/92/121 89/94/123 90/99/124
f 90/99/124 89/94/123 92/133/125 91/101/126
s 9
f 91/101/127 92/133/128 106/84/129 105/102/130
s 7
f 93/80/131 94/79/132 112/85/133 111/110/134
f 94/79/132 93/80/131 95/113/135 96/117/136
f 96/117/136 95/113/135 97/115/137 98/119/138
f 98/119/138 97/115/137 99/116/139 100/121/140
f 100/121/140 99/116/139 101/81/141 102/123/142
f 102/123/142 101/81/141 113/109/143 114/82/144
f 104/78/116 103/103/115 107/107/145 108/83/146
s 9
f 105/102/130 106/84/129 110/86/147 109/106/148
s 7
f 108/83/146 107/107/145 111/110/134 112/85/133
s 9
f 109/106/148 110/86/147 114/82/149 113/109/150
s 1
f 16/140/17 17/87/16 85/90/151 83/88/152
f 17/87/16 18/89/18 87/92/153 85/90/151
f 18/89/18 19/91/19 89/94/154 87/92/153
f 19/91/19 20/93/20 92/133/155 89/94/154
s 2
f 84/95/156 86/96/157 21/97/21 103/103/158
f 86/96/157 88/98/159 22/100/22 21/97/21
f 88/98/159 90/99/160 23/105/25 22/100/22
f 90/99/160 91/101/161 105/102/162 23/105/25
f 103/103/158 21/97/21 24/104/24 107/107/163
f 23/105/25 105/102/162 109/106/164 26/108/26
f 107/107/163 24/104/24 27/111/28 111/110/165
f 26/108/26 109/106/164 113/109/166 29/114/29
f 111/110/165 27/111/28 95/113/167 93/80/168
f 27/111/28 28/112/27 97/115/169 95/113/167
f 28/112/27 29/114/29 99/116/170 97/115/169
f 29/114/29 113/109/166 101/81/171 99/116/170
s 3
f 94/79/172 96/117/173 31/120/31 30/118/30
f 96/117/173 98/119/174 32/122/34 31/120/31
f 98/119/174 100/121/175 33/124/36 32/122/34
f 100/121/175 102/123/176 34/17/38 33/124/36
f 71/128/90 34/125/38 102/126/176 114/127/177
f 72/130/91 71/128/90 114/127/178 110/129/179
f 73/132/92 72/130/91 110/129/180 106/131/181
f 20/93/93 73/132/92 106/131/182 92/133/183
f 30/77/30 80/134/109 112/137/184 94/135/172
f 80/134/109 81/136/110 108/139/185 112/137/184
f 81/136/110 82/138/111 104/141/186 108/139/185
f 82/138/111 16/140/112 83/88/187 104/141/186
